PathFileType	4	(X/Y/Z)	C:/Users/opensim2020/Desktop/walking_exp_matlab/subject02_walking13_straight_03.trc																																																																																																																									
DataRate	CameraRate	NumFrames	NumMarkers	Units	OrigDataRate	OrigDataStartFrame	OrigNumFrames																																																																																																																					
100	100	5	41	mm	100	1312	129																																																																																																																					
Frame#	Time	LFHD			RFHD			LBHD			RBHD			C7			T10			CLAV			STRN			RBAK			LSHO			LUPA			LELB			LFRM			LWRA			LWRB			LFIN			RSHO			RUPA			RELB			RFRM			RWRA			RWRB			RFIN			LASI			RASI			LPSI			RPSI			LTHI			LKNE			LTIB			LANK			LHEE			LTOE			RTHI			RKNE			RTIB			RANK			RHEE			RTOE			*39			*40		
		X1	Y1	Z1	X2	Y2	Z2	X3	Y3	Z3	X4	Y4	Z4	X5	Y5	Z5	X6	Y6	Z6	X7	Y7	Z7	X8	Y8	Z8	X9	Y9	Z9	X10	Y10	Z10	X11	Y11	Z11	X12	Y12	Z12	X13	Y13	Z13	X14	Y14	Z14	X15	Y15	Z15	X16	Y16	Z16	X17	Y17	Z17	X18	Y18	Z18	X19	Y19	Z19	X20	Y20	Z20	X21	Y21	Z21	X22	Y22	Z22	X23	Y23	Z23	X24	Y24	Z24	X25	Y25	Z25	X26	Y26	Z26	X27	Y27	Z27	X28	Y28	Z28	X29	Y29	Z29	X30	Y30	Z30	X31	Y31	Z31	X32	Y32	Z32	X33	Y33	Z33	X34	Y34	Z34	X35	Y35	Z35	X36	Y36	Z36	X37	Y37	Z37	X38	Y38	Z38	X39	Y39	Z39	X40	Y40	Z40	X41	Y41	Z41
																																																																																																																												
1	0	-631.03314	1736.70032	-1003.76697	-654.84906	1710.14368	-864.52502	-761.96716	1669.00037	-1037.53479	-796.79425	1641.18311	-901.18127	-834.35437	1525.896	-962.0835	-897.09204	1253.01514	-960.13245	-699.07959	1452.82629	-987.17059	-654.05194	1278.30664	-989.39423	-893.29114	1351.79736	-898.43585	-786.83917	1504.43103	-1145.28711	-821.51685	1319.36011	-1245.93188	-826.87616	1184.14026	-1284.36108	-794.2019	1056.95776	-1320.97852	-709.88037	944.43091	-1314.35413	-759.45526	939.14355	-1341.78943	-726.33264	880.35895	-1351.74658	-740.97937	1482.40601	-784.58307	-770.77661	1289.73889	-703.55927	-768.68909	1143.57886	-695.36658	-750.58771	1025.03809	-680.51233	-717.63556	894.5752	-706.19269	-761.21722	895.27734	-668.66595	-729.27936	829.74811	-669.84485	-707.41614	982.44458	-1125.62427	-675.84723	969.94995	-869.32874	-898.24109	1036.70544	-1014.45441	-890.83667	1036.78845	-900.22021	-752.81006	676.36298	-1195.93359	-755.91632	491.55054	-1187.2179	-898.44019	378.8454	-1161.90491	-1022.69818	197.0126	-1126.24365	-1046.68933	188.33058	-1063.64856	-946.8855	70.93673	-1179.92676	-718.3421	660.24811	-812.98779	-705.92725	456.75687	-875.80145	-750.59241	272.0701	-880.82074	-784.94708	86.5778	-932.01239	-825.91022	34.10209	-989.052	-636.94476	38.76607	-929.60889	-743.18518	1801.44592	-926.44873	2846.00635	1034.25012	-3357.38208
2	0.01	-622.52905	1738.83093	-1008.43066	-643.49182	1711.88489	-866.32983	-750.73993	1670.91357	-1038.96521	-786.3407	1643.11621	-902.82465	-823.42139	1527.66882	-963.80719	-885.73645	1254.71582	-960.99829	-687.91003	1454.64355	-988.59564	-642.6778	1280.21326	-989.987	-881.49255	1353.19812	-899.72766	-776.0097	1505.62659	-1146.96899	-812.48792	1319.71045	-1246.0802	-819.8725	1183.92957	-1281.9729	-790.17798	1055.45227	-1316.93433	-708.7146	940.96381	-1308.40637	-758.5448	936.59802	-1336.07813	-727.11688	876.74249	-1344.93945	-730.36786	1485.13855	-786.29633	-757.85608	1292.52991	-704.67004	-753.44867	1145.91724	-696.2691	-732.68842	1027.6637	-681.91644	-696.82422	897.98981	-708.41235	-740.2442	897.49091	-670.72766	-706.65912	832.87317	-672.33374	-693.42712	986.17743	-1125.77393	-665.60016	971.16974	-869.29846	-886.35046	1038.48157	-1015.95892	-879.71924	1038.41516	-901.45831	-734.63489	679.69385	-1197.55847	-732.41003	494.04871	-1188.64111	-871.21967	376.58838	-1164.62805	-989.29407	190.19347	-1129.50134	-1013.79968	180.16257	-1067.16199	-907.08234	68.66881	-1183.79321	-713.7171	660.52478	-813.90198	-703.82208	456.64606	-876.45496	-750.28107	272.34921	-881.23236	-785.29382	86.63683	-932.39948	-826.36542	34.49742	-989.13312	-637.052	38.66623	-929.41895	-731.90826	1803.29431	-928.13	2846.04077	1034.2627	-3357.35229
3	0.02	-608.74847	1739.77502	-1007.37238	-632.48547	1713.21387	-868.02991	-739.71838	1672.6759	-1040.77368	-774.76294	1645.04956	-904.83148	-812.25336	1529.17249	-965.64453	-874.41705	1256.21155	-961.80072	-676.6748	1456.3009	-990.05701	-631.26703	1281.91138	-990.45831	-870.46869	1355.08057	-900.85455	-765.06781	1506.52844	-1148.72571	-803.50537	1319.91907	-1245.96997	-812.9751	1183.67078	-1279.6698	-786.58081	1054.0531	-1312.63794	-707.7453	938.12939	-1302.80945	-758.14008	933.9444	-1329.97644	-728.38513	873.30072	-1338.25977	-719.75	1487.61841	-787.85175	-744.99402	1294.67761	-705.81854	-737.9856	1147.9928	-697.11951	-714.61493	1030.03748	-683.64771	-675.78455	901.42712	-710.62036	-719.09662	899.76752	-672.58807	-684.21326	836.18042	-674.63751	-680.03845	989.15924	-1124.7915	-655.26575	972.10382	-869.15076	-874.40106	1040.20166	-1017.61682	-868.54315	1039.80505	-902.87781	-716.68982	682.95087	-1199.24561	-709.51251	496.85214	-1190.37866	-844.14905	373.77606	-1167.35278	-955.02765	182.46498	-1132.86389	-979.96094	170.99599	-1070.63831	-866.61206	65.81522	-1187.2572	-709.62927	660.67328	-815.16846	-701.47601	456.34546	-877.52368	-749.79779	272.63074	-881.63489	-784.94061	86.68277	-932.84039	-826.33307	34.47977	-989.37622	-637.00055	38.61701	-929.46344	-720.53473	1804.94165	-929.87537	2846.10376	1034.23621	-3357.396
4	0.03	-597.95709	1741.08752	-1009.70746	-621.28284	1714.42212	-869.66864	-728.7663	1674.28223	-1043.02087	-763.68561	1646.48328	-906.64069	-800.97876	1530.42175	-967.58051	-863.0658	1257.4469	-962.61407	-665.38226	1457.74524	-991.51599	-619.7829	1283.41504	-990.93506	-860.06311	1356.91992	-902.02893	-753.89636	1507.1261	-1150.4563	-794.40692	1319.95374	-1245.87378	-806.05597	1183.19348	-1277.35107	-783.11017	1052.68005	-1308.59985	-707.33936	934.86414	-1297.17871	-757.83459	931.7262	-1324.43359	-729.93341	869.99091	-1331.81421	-709.13129	1489.93518	-789.6178	-732.87781	1296.87488	-707.13953	-722.30072	1149.92236	-697.8255	-696.39453	1032.5365	-684.91644	-654.44507	904.96466	-712.82965	-697.33954	902.05756	-674.6886	-660.84406	839.28619	-677.27795	-666.34833	991.75311	-1123.47058	-645.14246	972.57819	-868.9325	-862.50232	1041.71875	-1019.54913	-857.4483	1040.93713	-904.48456	-698.92749	686.0387	-1201.00732	-687.12714	499.32278	-1191.87793	-817.20288	370.41928	-1170.25452	-919.98907	174.17482	-1136.36194	-945.04517	161.09543	-1074.46692	-825.258	62.81155	-1190.57898	-705.54401	660.9054	-816.67786	-699.29095	456.20554	-877.99683	-748.9425	272.79855	-882.1076	-784.80841	86.8176	-933.17926	-826.09344	34.35318	-989.54382	-636.99152	38.49915	-929.51727	-709.17426	1806.31189	-931.55029	2845.93506	1034.23633	-3357.27808
5	0.04	-586.21832	1741.98462	-1010.60699	-610.05249	1715.28955	-871.49683	-717.55609	1675.44873	-1044.76794	-752.62872	1647.84033	-908.55499	-789.67841	1531.44373	-969.46997	-851.62482	1258.40369	-963.54205	-654.08325	1458.86609	-992.92688	-608.31281	1284.64722	-991.28003	-848.10095	1358.04468	-903.03833	-742.55231	1507.32361	-1152.1897	-785.23743	1319.75208	-1245.47351	-799.16394	1182.94214	-1275.26843	-779.71069	1051.31738	-1304.66675	-707.72064	930.85437	-1291.34558	-757.96295	929.60455	-1318.82397	-731.82404	866.93439	-1325.4187	-698.14636	1491.62183	-791.19055	-719.68707	1298.70435	-708.26898	-707.10736	1151.57666	-698.71393	-677.91315	1034.87134	-686.28906	-633.01904	908.52716	-714.99078	-675.65863	904.32465	-676.72253	-637.35126	842.59363	-679.7428	-652.49792	993.82861	-1121.96167	-635.00586	972.78625	-868.54425	-850.64105	1043.09961	-1021.59747	-846.31006	1041.79529	-906.32452	-681.35846	688.96082	-1202.91162	-665.39844	501.57681	-1193.31409	-790.43024	366.38086	-1173.15771	-884.12708	165.25169	-1140.04578	-909.25018	150.63408	-1078.3772	-783.03827	59.96851	-1193.94348	-700.3761	661.0174	-818.04755	-696.83606	456.06378	-878.80505	-747.7652	272.96497	-882.55511	-784.65546	86.9474	-933.41949	-825.40637	33.9589	-989.93555	-636.87305	38.3187	-929.57001	-697.76154	1807.24805	-933.1925	2845.95435	1034.43066	-3357.33154
